<?xml version="1.0" encoding="UTF-8" standalone="no"?>
<!-- Created with Inkscape (http://www.inkscape.org/) -->

<svg
   xmlns:dc="http://purl.org/dc/elements/1.1/"
   xmlns:cc="http://creativecommons.org/ns#"
   xmlns:rdf="http://www.w3.org/1999/02/22-rdf-syntax-ns#"
   xmlns:svg="http://www.w3.org/2000/svg"
   xmlns="http://www.w3.org/2000/svg"
   xmlns:xlink="http://www.w3.org/1999/xlink"
   xmlns:sodipodi="http://sodipodi.sourceforge.net/DTD/sodipodi-0.dtd"
   xmlns:inkscape="http://www.inkscape.org/namespaces/inkscape"
   width="744.09448819"
   height="1052.3622047"
   id="svg3028"
   version="1.1"
   inkscape:version="0.47 r22583"
   sodipodi:docname="New document 1">
  <defs
     id="defs3030">
    <inkscape:perspective
       sodipodi:type="inkscape:persp3d"
       inkscape:vp_x="0 : 526.18109 : 1"
       inkscape:vp_y="0 : 1000 : 0"
       inkscape:vp_z="744.09448 : 526.18109 : 1"
       inkscape:persp3d-origin="372.04724 : 350.78739 : 1"
       id="perspective3036" />
    <inkscape:perspective
       id="perspective3046"
       inkscape:persp3d-origin="0.5 : 0.33333333 : 1"
       inkscape:vp_z="1 : 0.5 : 1"
       inkscape:vp_y="0 : 1000 : 0"
       inkscape:vp_x="0 : 0.5 : 1"
       sodipodi:type="inkscape:persp3d" />
    <linearGradient
       inkscape:collect="always"
       xlink:href="#linearGradient11462"
       id="linearGradient2895"
       gradientUnits="userSpaceOnUse"
       gradientTransform="matrix(0,-0.80139,1.24783,0,0,0)"
       x1="-485.63391"
       y1="358.67432"
       x2="-505.8255"
       y2="337.60022" />
    <linearGradient
       id="linearGradient11462">
      <stop
         style="stop-color: rgb(128, 255, 38); stop-opacity: 1;"
         offset="0.0000000"
         id="stop11464" />
      <stop
         style="stop-color: rgb(44, 150, 0); stop-opacity: 1;"
         offset="1.0000000"
         id="stop11466" />
    </linearGradient>
    <linearGradient
       inkscape:collect="always"
       xlink:href="#linearGradient11462"
       id="linearGradient2897"
       gradientUnits="userSpaceOnUse"
       gradientTransform="matrix(0,-0.80139,1.24783,0,0,0)"
       x1="-456.45148"
       y1="358.80856"
       x2="-476.01202"
       y2="338.0029" />
    <linearGradient
       id="linearGradient3055">
      <stop
         style="stop-color: rgb(128, 255, 38); stop-opacity: 1;"
         offset="0.0000000"
         id="stop3057" />
      <stop
         style="stop-color: rgb(44, 150, 0); stop-opacity: 1;"
         offset="1.0000000"
         id="stop3059" />
    </linearGradient>
    <linearGradient
       y2="338.0029"
       x2="-476.01202"
       y1="358.80856"
       x1="-456.45148"
       gradientTransform="matrix(0,-0.80139,1.24783,0,0,0)"
       gradientUnits="userSpaceOnUse"
       id="linearGradient3064"
       xlink:href="#linearGradient11462"
       inkscape:collect="always" />
    <inkscape:perspective
       id="perspective3201"
       inkscape:persp3d-origin="0.5 : 0.33333333 : 1"
       inkscape:vp_z="1 : 0.5 : 1"
       inkscape:vp_y="0 : 1000 : 0"
       inkscape:vp_x="0 : 0.5 : 1"
       sodipodi:type="inkscape:persp3d" />
    <radialGradient
       inkscape:collect="always"
       xlink:href="#linearGradient3609"
       id="radialGradient3615"
       cx="6.4081554"
       cy="17.403807"
       fx="6.4081554"
       fy="17.403807"
       r="5.524272"
       gradientTransform="matrix(1,0,0,0.416,0,10.1638)"
       gradientUnits="userSpaceOnUse" />
    <linearGradient
       inkscape:collect="always"
       id="linearGradient3609">
      <stop
         style="stop-color: rgb(0, 0, 0); stop-opacity: 1;"
         offset="0"
         id="stop3611" />
      <stop
         style="stop-color: rgb(0, 0, 0); stop-opacity: 0;"
         offset="1"
         id="stop3613" />
    </linearGradient>
    <linearGradient
       inkscape:collect="always"
       xlink:href="#linearGradient4068"
       id="linearGradient4095"
       gradientUnits="userSpaceOnUse"
       x1="7.5763841"
       y1="20.301662"
       x2="7.3215322"
       y2="27.345011" />
    <linearGradient
       id="linearGradient4068">
      <stop
         style="stop-color: rgb(234, 234, 233); stop-opacity: 1;"
         offset="0"
         id="stop4070" />
      <stop
         style="stop-color: rgb(165, 167, 162); stop-opacity: 1;"
         offset="1"
         id="stop4072" />
    </linearGradient>
    <linearGradient
       inkscape:collect="always"
       xlink:href="#linearGradient4068"
       id="linearGradient4097"
       gradientUnits="userSpaceOnUse"
       x1="7.5763841"
       y1="20.301662"
       x2="7.3215322"
       y2="27.345011" />
    <linearGradient
       id="linearGradient3214">
      <stop
         style="stop-color: rgb(234, 234, 233); stop-opacity: 1;"
         offset="0"
         id="stop3216" />
      <stop
         style="stop-color: rgb(165, 167, 162); stop-opacity: 1;"
         offset="1"
         id="stop3218" />
    </linearGradient>
    <linearGradient
       inkscape:collect="always"
       xlink:href="#linearGradient3281"
       id="linearGradient3287"
       x1="4.6831217"
       y1="24.665476"
       x2="8.3712559"
       y2="24.317278"
       gradientUnits="userSpaceOnUse" />
    <linearGradient
       inkscape:collect="always"
       id="linearGradient3281">
      <stop
         style="stop-color: rgb(255, 255, 255); stop-opacity: 1;"
         offset="0"
         id="stop3283" />
      <stop
         style="stop-color: rgb(255, 255, 255); stop-opacity: 0;"
         offset="1"
         id="stop3285" />
    </linearGradient>
    <linearGradient
       inkscape:collect="always"
       xlink:href="#linearGradient4608"
       id="linearGradient4585"
       gradientUnits="userSpaceOnUse"
       gradientTransform="matrix(1.76991,0,0,1.76991,-37.52063,952.14147)"
       x1="56.302975"
       y1="4.9369388"
       x2="56.609135"
       y2="8.6796741" />
    <linearGradient
       id="linearGradient4608">
      <stop
         style="stop-color: rgb(238, 238, 236);"
         offset="0"
         id="stop4610" />
      <stop
         style="stop-color: rgb(138, 140, 135); stop-opacity: 1;"
         offset="1"
         id="stop4612" />
    </linearGradient>
    <linearGradient
       inkscape:collect="always"
       xlink:href="#linearGradient4099"
       id="linearGradient4105"
       x1="11.125889"
       y1="25.559732"
       x2="9.346509"
       y2="25.736509"
       gradientUnits="userSpaceOnUse"
       gradientTransform="matrix(1.29618,0,0,1.29618,45.84553,934.1446)" />
    <linearGradient
       inkscape:collect="always"
       id="linearGradient4099">
      <stop
         style="stop-color: rgb(111, 114, 111); stop-opacity: 1;"
         offset="0"
         id="stop4101" />
      <stop
         style="stop-color: rgb(111, 114, 111); stop-opacity: 0;"
         offset="1"
         id="stop4103" />
    </linearGradient>
    <linearGradient
       gradientTransform="translate(50.82377,941.46917)"
       inkscape:collect="always"
       xlink:href="#linearGradient3510"
       id="linearGradient3516"
       x1="9.485774"
       y1="22.107626"
       x2="7.378232"
       y2="22.637957"
       gradientUnits="userSpaceOnUse" />
    <linearGradient
       inkscape:collect="always"
       id="linearGradient3510">
      <stop
         style="stop-color: rgb(255, 255, 255); stop-opacity: 1;"
         offset="0"
         id="stop3512" />
      <stop
         style="stop-color: rgb(255, 255, 255); stop-opacity: 0;"
         offset="1"
         id="stop3514" />
    </linearGradient>
    <radialGradient
       inkscape:collect="always"
       xlink:href="#linearGradient3674"
       id="radialGradient3680"
       cx="5.0822492"
       cy="12.516305"
       fx="5.0822492"
       fy="12.516305"
       r="2.9831069"
       gradientTransform="matrix(1.52579,0,-1.48044e-8,1.76896,50.74214,947.53543)"
       gradientUnits="userSpaceOnUse" />
    <linearGradient
       id="linearGradient3674">
      <stop
         style="stop-color: rgb(255, 255, 255); stop-opacity: 0;"
         offset="0"
         id="stop3676" />
      <stop
         style="stop-color: rgb(255, 255, 255); stop-opacity: 1;"
         offset="1"
         id="stop3678" />
    </linearGradient>
    <radialGradient
       inkscape:collect="always"
       xlink:href="#linearGradient3676"
       id="radialGradient3702"
       gradientUnits="userSpaceOnUse"
       gradientTransform="matrix(-0.127582,1.41606,-1.63014,-0.146854,17.4875,15.5612)"
       cx="-1.0016617"
       cy="0.99004257"
       fx="-1.0016617"
       fy="0.99004257"
       r="9.9205227" />
    <linearGradient
       inkscape:collect="always"
       id="linearGradient3676">
      <stop
         style="stop-color: rgb(238, 238, 236);"
         offset="0"
         id="stop4022" />
      <stop
         style="stop-color: rgb(85, 87, 83);"
         offset="1"
         id="stop3680" />
    </linearGradient>
    <linearGradient
       inkscape:collect="always"
       xlink:href="#linearGradient1557"
       id="linearGradient1549"
       x1="17.0625"
       y1="34.950001"
       x2="20.3125"
       y2="5.375"
       gradientUnits="userSpaceOnUse" />
    <linearGradient
       id="linearGradient1557"
       inkscape:collect="always">
      <stop
         id="stop1559"
         offset="0"
         style="stop-color: rgb(46, 52, 54); stop-opacity: 1;" />
      <stop
         id="stop1561"
         offset="1"
         style="stop-color: rgb(136, 138, 133);" />
    </linearGradient>
    <radialGradient
       inkscape:collect="always"
       xlink:href="#linearGradient3730"
       id="radialGradient3728"
       gradientUnits="userSpaceOnUse"
       gradientTransform="matrix(-0.310032,2.11086,-2.08278,-0.305867,17.7529,16.4146)"
       cx="-1.0016617"
       cy="0.99004257"
       fx="-1.0016617"
       fy="0.99004257"
       r="9.9205227" />
    <linearGradient
       id="linearGradient3730"
       inkscape:collect="always">
      <stop
         id="stop3732"
         offset="0"
         style="stop-color: rgb(238, 238, 236);" />
      <stop
         id="stop3734"
         offset="1"
         style="stop-color: rgb(136, 138, 133);" />
    </linearGradient>
    <radialGradient
       inkscape:collect="always"
       xlink:href="#linearGradient3628"
       id="radialGradient3644"
       cx="12.704856"
       cy="13.847466"
       fx="12.704856"
       fy="13.847466"
       r="9.375"
       gradientUnits="userSpaceOnUse"
       gradientTransform="matrix(0.0637085,-1.42447,1.54729,0.0692112,-9.53063,30.9868)" />
    <linearGradient
       inkscape:collect="always"
       id="linearGradient3628">
      <stop
         style="stop-color: rgb(211, 215, 207);"
         offset="0"
         id="stop3630" />
      <stop
         style="stop-color: rgb(85, 87, 83);"
         offset="1"
         id="stop3632" />
    </linearGradient>
    <linearGradient
       inkscape:collect="always"
       xlink:href="#linearGradient3692"
       id="linearGradient3698"
       x1="-0.51990569"
       y1="-0.51990569"
       x2="-0.51990569"
       y2="19.269905"
       gradientUnits="userSpaceOnUse" />
    <linearGradient
       inkscape:collect="always"
       id="linearGradient3692">
      <stop
         style="stop-color: rgb(46, 52, 54); stop-opacity: 1;"
         offset="0"
         id="stop3694" />
      <stop
         style="stop-color: rgb(186, 189, 182);"
         offset="1"
         id="stop3696" />
    </linearGradient>
    <radialGradient
       inkscape:collect="always"
       xlink:href="#linearGradient3670"
       id="radialGradient3634"
       cx="6.8797626"
       cy="7.1986876"
       fx="6.8797626"
       fy="7.1986876"
       r="9.375"
       gradientUnits="userSpaceOnUse"
       gradientTransform="matrix(1.24075,0,0,1.15763,-1.71364,-1.13474)" />
    <linearGradient
       id="linearGradient3670"
       inkscape:collect="always">
      <stop
         id="stop3672"
         offset="0"
         style="stop-color: rgb(211, 215, 207);" />
      <stop
         id="stop3674"
         offset="1"
         style="stop-color: rgb(85, 87, 83);" />
    </linearGradient>
    <radialGradient
       r="5.524272"
       fy="17.403807"
       fx="6.4081554"
       cy="17.403807"
       cx="6.4081554"
       gradientTransform="matrix(1,0,0,0.416,0,10.1638)"
       gradientUnits="userSpaceOnUse"
       id="radialGradient3287"
       xlink:href="#linearGradient3609"
       inkscape:collect="always" />
    <linearGradient
       inkscape:collect="always"
       xlink:href="#linearGradient11462"
       id="linearGradient3457"
       gradientUnits="userSpaceOnUse"
       gradientTransform="matrix(0,-0.46567817,0.72509914,0,-165.34822,732.18798)"
       x1="-456.45148"
       y1="358.80856"
       x2="-476.01202"
       y2="338.0029" />
    <linearGradient
       inkscape:collect="always"
       xlink:href="#linearGradient11462"
       id="linearGradient3460"
       gradientUnits="userSpaceOnUse"
       gradientTransform="matrix(0,-0.46567817,0.72509914,0,-165.34822,727.98679)"
       x1="-485.63391"
       y1="358.67432"
       x2="-505.8255"
       y2="337.60022" />
  </defs>
  <sodipodi:namedview
     id="base"
     pagecolor="#ffffff"
     bordercolor="#666666"
     borderopacity="1.0"
     inkscape:pageopacity="0.0"
     inkscape:pageshadow="2"
     inkscape:zoom="5.6"
     inkscape:cx="89.8574"
     inkscape:cy="92.262349"
     inkscape:document-units="px"
     inkscape:current-layer="layer1"
     showgrid="false"
     inkscape:window-width="884"
     inkscape:window-height="672"
     inkscape:window-x="565"
     inkscape:window-y="200"
     inkscape:window-maximized="0" />
  <metadata
     id="metadata3033">
    <rdf:RDF>
      <cc:Work
         rdf:about="">
        <dc:format>image/svg+xml</dc:format>
        <dc:type
           rdf:resource="http://purl.org/dc/dcmitype/StillImage" />
        <dc:title></dc:title>
      </cc:Work>
    </rdf:RDF>
  </metadata>
  <g
     inkscape:label="Layer 1"
     inkscape:groupmode="layer"
     id="layer1">
    <path
       sodipodi:type="arc"
       style="opacity:0.42857098;color:#000000;fill:url(#radialGradient3287);fill-opacity:1;fill-rule:nonzero;stroke:none;stroke-width:1;marker:none;visibility:visible;display:inline;overflow:visible"
       id="path3607"
       sodipodi:cx="6.4081554"
       sodipodi:cy="17.403807"
       sodipodi:rx="5.524272"
       sodipodi:ry="2.2980971"
       d="m 11.932427,17.403807 a 5.524272,2.2980971 0 1 1 -11.04854352,0 5.524272,2.2980971 0 1 1 11.04854352,0 z"
       transform="matrix(2.90191,0,0,3.80495,45.97127,909.15757)" />
    <g
       id="g4090"
       transform="matrix(1.29618,0,0,1.29618,46.64749,934.1446)">
      <path
         transform="matrix(1.41596,0,0,1.25856,-2.66761,-6.20067)"
         d="m 12.374369,24.665476 c 0,3.514719 -1.622486,6.363961 -3.6239227,6.363961 -2.001437,0 -3.6239223,-2.849242 -3.6239223,-6.363961 0,-3.514719 1.6224853,-6.363961 3.6239223,-6.363961 2.0014367,0 3.6239227,2.849242 3.6239227,6.363961 z"
         sodipodi:ry="6.3639612"
         sodipodi:rx="3.6239223"
         sodipodi:cy="24.665476"
         sodipodi:cx="8.7504463"
         id="path4076"
         style="color:#000000;fill:url(#linearGradient4095);fill-opacity:1;fill-rule:nonzero;stroke:#5d615f;stroke-width:0.57792503;stroke-linecap:round;stroke-linejoin:round;stroke-miterlimit:4;stroke-opacity:1;stroke-dasharray:none;stroke-dashoffset:0;marker:none;visibility:visible;display:inline;overflow:visible"
         sodipodi:type="arc" />
      <path
         sodipodi:type="arc"
         style="color:#000000;fill:url(#linearGradient4097);fill-opacity:1;fill-rule:nonzero;stroke:none;stroke-width:0.86615598;marker:none;visibility:visible;display:inline;overflow:visible"
         id="path4060"
         sodipodi:cx="8.7504463"
         sodipodi:cy="24.665476"
         sodipodi:rx="3.6239223"
         sodipodi:ry="6.3639612"
         d="m 12.374369,24.665476 c 0,3.514719 -1.622486,6.363961 -3.6239227,6.363961 -2.001437,0 -3.6239223,-2.849242 -3.6239223,-6.363961 0,-3.514719 1.6224853,-6.363961 3.6239223,-6.363961 2.0014367,0 3.6239227,2.849242 3.6239227,6.363961 z"
         transform="matrix(1.15453,0,0,1.15453,-0.379902,-3.63468)" />
      <path
         transform="matrix(1.08135,0,0,1.08135,1.23265,-1.82989)"
         d="m 12.374369,24.665476 c 0,3.514719 -1.622486,6.363961 -3.6239227,6.363961 -2.001437,0 -3.6239223,-2.849242 -3.6239223,-6.363961 0,-3.514719 1.6224853,-6.363961 3.6239223,-6.363961 2.0014367,0 3.6239227,2.849242 3.6239227,6.363961 z"
         sodipodi:ry="6.3639612"
         sodipodi:rx="3.6239223"
         sodipodi:cy="24.665476"
         sodipodi:cx="8.7504463"
         id="path4058"
         style="color:#000000;fill:#93958f;fill-opacity:1;fill-rule:nonzero;stroke:none;stroke-width:0.86615598;marker:none;visibility:visible;display:inline;overflow:visible"
         sodipodi:type="arc" />
      <path
         sodipodi:type="arc"
         style="opacity:0.39560403;color:#000000;fill:none;stroke:url(#linearGradient3287);stroke-width:0.68416703;stroke-linecap:round;stroke-linejoin:round;stroke-miterlimit:4;stroke-opacity:1;stroke-dasharray:none;stroke-dashoffset:0;marker:none;visibility:visible;display:inline;overflow:visible"
         id="path3279"
         sodipodi:cx="8.7504463"
         sodipodi:cy="24.665476"
         sodipodi:rx="3.6239223"
         sodipodi:ry="6.3639612"
         d="m 12.374369,24.665476 c 0,3.514719 -1.622486,6.363961 -3.6239227,6.363961 -2.001437,0 -3.6239223,-2.849242 -3.6239223,-6.363961 0,-3.514719 1.6224853,-6.363961 3.6239223,-6.363961 2.0014367,0 3.6239227,2.849242 3.6239227,6.363961 z"
         transform="matrix(1.1807,0,0,1.07697,-0.608944,-1.72174)" />
    </g>
    <path
       style="color:#000000;fill:url(#linearGradient4585);fill-opacity:1;fill-rule:evenodd;stroke:url(#linearGradient4105);stroke-width:1;stroke-linecap:round;stroke-linejoin:miter;stroke-miterlimit:4;stroke-opacity:1;stroke-dashoffset:0;marker:none;visibility:visible;display:inline;overflow:visible"
       d="m 60.30445,959.71178 7.089687,-6.12421 -0.229135,25.08285 -7.204255,-5.52506 c -2.520482,-2.06222 -2.978751,-11.2568 0.343703,-13.43358 z"
       id="path4542"
       sodipodi:nodetypes="ccccc" />
    <path
       style="color:#000000;fill:url(#linearGradient3516);fill-opacity:1;fill-rule:evenodd;stroke:none;stroke-width:1;marker:none;visibility:visible;display:inline;overflow:visible"
       d="m 58.36212,963.45662 4.054966,-3.03902 -0.251614,3.53608 -3.96347,0.66099 0.160118,-1.15805 z"
       id="path4544"
       sodipodi:nodetypes="ccccc" />
    <path
       style="opacity:0.76923104;color:#000000;fill:url(#radialGradient3680);fill-opacity:1;fill-rule:nonzero;stroke:none;stroke-width:1;marker:none;visibility:visible;display:inline;overflow:visible"
       d="m 59.027286,971.84035 4.440805,3.56834 -0.556825,-2.42789 -4.476405,-2.50274 0.592425,1.36229 z"
       id="path3672"
       sodipodi:nodetypes="ccccc" />
    <g
       style="display:inline"
       id="g4006"
       transform="matrix(1.09689,0,0,1.50927,46.60682,929.35107)">
      <path
         sodipodi:nodetypes="ccsssscscsscscsscscsssssssc"
         id="path3726"
         d="M 23.75,14 C 21.81001,14.04917 20.013366,14.683436 18.5,15.6875 18.13319,15.264088 17.60375,15 17,15 c -0.0345,0 -0.08734,8.54e-4 -0.125,0 -0.02799,-2e-4 -0.06855,-0.0026 -0.09375,0 C 15.773145,15.102481 15,15.965001 15,17 c 0,0.60375 0.264088,1.13319 0.6875,1.5 C 14.639107,20.080181 14,21.962011 14,24 c 0,2.033681 0.611921,3.921829 1.65625,5.5 C 15.243427,29.869532 15,30.401641 15,31 c 0,1.104 0.896,2.000001 2,2 0.60375,0 1.13319,-0.264089 1.5,-0.6875 C 20.080181,33.360893 21.962011,34 24,34 c 2.03799,0 3.919819,-0.639107 5.5,-1.6875 0.36681,0.423412 0.896251,0.687501 1.5,0.6875 1.103999,0 2,-0.895999 2,-2 0,-0.60375 -0.264088,-1.13319 -0.6875,-1.5 C 33.360893,27.919819 34,26.03799 34,24 34,21.962011 33.360893,20.080181 32.3125,18.5 32.735912,18.13319 33,17.60375 33,17 c 0,-1.104 -0.896001,-2 -2,-2 -0.0345,0 -0.08734,8.54e-4 -0.125,0 -0.02799,-2e-4 -0.06855,-0.0026 -0.09375,0 -0.504052,0.05124 -0.961951,0.298435 -1.28125,0.65625 -0.0067,-0.0044 -0.02455,0.0044 -0.03125,0 C 27.894622,14.620029 26.025064,14 24,14 c -0.08617,0 -0.164349,-0.0022 -0.25,0 z"
         style="color:#000000;fill:url(#radialGradient3702);fill-opacity:1;fill-rule:evenodd;stroke:url(#linearGradient1549);stroke-width:1.47668004;stroke-linecap:round;stroke-linejoin:miter;stroke-miterlimit:4;stroke-opacity:1;stroke-dasharray:none;stroke-dashoffset:0;marker:none;visibility:visible;display:inline;overflow:visible" />
      <path
         sodipodi:nodetypes="ccsssscscsscscsscscsssssssc"
         id="path3507"
         d="M 23.75,14 C 21.81001,14.04917 20.013366,14.683436 18.5,15.6875 18.13319,15.264088 17.60375,15 17,15 c -0.0345,0 -0.08734,8.54e-4 -0.125,0 -0.02799,-2e-4 -0.06855,-0.0026 -0.09375,0 C 15.773145,15.102481 15,15.965001 15,17 c 0,0.60375 0.264088,1.13319 0.6875,1.5 C 14.639107,20.080181 14,21.962011 14,24 c 0,2.033681 0.611921,3.921829 1.65625,5.5 C 15.243427,29.869532 15,30.401641 15,31 c 0,1.104 0.896,2.000001 2,2 0.60375,0 1.13319,-0.264089 1.5,-0.6875 C 20.080181,33.360893 21.962011,34 24,34 c 2.03799,0 3.919819,-0.639107 5.5,-1.6875 0.36681,0.423412 0.896251,0.687501 1.5,0.6875 1.103999,0 2,-0.895999 2,-2 0,-0.60375 -0.264088,-1.13319 -0.6875,-1.5 C 33.360893,27.919819 34,26.03799 34,24 34,21.962011 33.360893,20.080181 32.3125,18.5 32.735912,18.13319 33,17.60375 33,17 c 0,-1.104 -0.896001,-2 -2,-2 -0.0345,0 -0.08734,8.54e-4 -0.125,0 -0.02799,-2e-4 -0.06855,-0.0026 -0.09375,0 -0.504052,0.05124 -0.961951,0.298435 -1.28125,0.65625 -0.0067,-0.0044 -0.02455,0.0044 -0.03125,0 C 27.894622,14.620029 26.025064,14 24,14 c -0.08617,0 -0.164349,-0.0022 -0.25,0 z"
         style="color:#000000;fill:url(#radialGradient3728);fill-opacity:1;fill-rule:evenodd;stroke:none;stroke-width:1.09104002;marker:none;visibility:visible;display:inline;overflow:visible" />
      <path
         transform="matrix(0.846982,0,0,0.911415,16.7103,15.4496)"
         d="m 18.75,9.375 c 0,5.17767 -4.19733,9.375 -9.375,9.375 C 4.1973305,18.75 0,14.55267 0,9.375 0,4.1973305 4.1973305,0 9.375,0 14.55267,0 18.75,4.1973305 18.75,9.375 z"
         sodipodi:ry="9.375"
         sodipodi:rx="9.375"
         sodipodi:cy="9.375"
         sodipodi:cx="9.375"
         id="path3636"
         style="color:#000000;fill:url(#radialGradient3644);fill-opacity:1;fill-rule:evenodd;stroke:url(#linearGradient3698);stroke-width:0.838319;stroke-linecap:round;stroke-linejoin:miter;stroke-miterlimit:4;stroke-opacity:1;stroke-dasharray:none;stroke-dashoffset:0;marker:none;visibility:visible;display:inline;overflow:visible"
         sodipodi:type="arc" />
      <path
         transform="matrix(0.367272,0,0,0.32,18.5625,21.125)"
         d="m 18.75,9.375 c 0,5.17767 -4.19733,9.375 -9.375,9.375 C 4.1973305,18.75 0,14.55267 0,9.375 0,4.1973305 4.1973305,0 9.375,0 14.55267,0 18.75,4.1973305 18.75,9.375 z"
         sodipodi:ry="9.375"
         sodipodi:rx="9.375"
         sodipodi:cy="9.375"
         sodipodi:cx="9.375"
         id="path3519"
         style="color:#000000;fill:url(#radialGradient3634);fill-opacity:1;fill-rule:evenodd;stroke:none;stroke-width:6.57905006;marker:none;visibility:visible;display:inline;overflow:visible"
         sodipodi:type="arc" />
      <path
         d="M 17,16.5 C 17,16.776142 16.776142,17 16.5,17 16.223858,17 16,16.776142 16,16.5 16,16.223858 16.223858,16 16.5,16 c 0.276142,0 0.5,0.223858 0.5,0.5 z"
         sodipodi:ry="0.5"
         sodipodi:rx="0.5"
         sodipodi:cy="16.5"
         sodipodi:cx="16.5"
         id="path3718"
         style="color:#000000;fill:#2e3436;fill-opacity:1;fill-rule:evenodd;stroke:none;stroke-width:1.10000002;marker:none;visibility:visible;display:inline;overflow:visible"
         sodipodi:type="arc"
         transform="matrix(1.3125,0,0,1.3125,-4.65768,-5.09375)" />
      <path
         transform="translate(15.2216,0.25)"
         d="M 17,16.5 C 17,16.776142 16.776142,17 16.5,17 16.223858,17 16,16.776142 16,16.5 16,16.223858 16.223858,16 16.5,16 c 0.276142,0 0.5,0.223858 0.5,0.5 z"
         sodipodi:ry="0.5"
         sodipodi:rx="0.5"
         sodipodi:cy="16.5"
         sodipodi:cx="16.5"
         id="path3720"
         style="color:#000000;fill:#2e3436;fill-opacity:1;fill-rule:evenodd;stroke:none;stroke-width:1.10000002;marker:none;visibility:visible;display:inline;overflow:visible"
         sodipodi:type="arc" />
      <path
         transform="translate(15.2216,14.9688)"
         d="M 17,16.5 C 17,16.776142 16.776142,17 16.5,17 16.223858,17 16,16.776142 16,16.5 16,16.223858 16.223858,16 16.5,16 c 0.276142,0 0.5,0.223858 0.5,0.5 z"
         sodipodi:ry="0.5"
         sodipodi:rx="0.5"
         sodipodi:cy="16.5"
         sodipodi:cx="16.5"
         id="path3722"
         style="color:#000000;fill:#2e3436;fill-opacity:1;fill-rule:evenodd;stroke:none;stroke-width:1.10000002;marker:none;visibility:visible;display:inline;overflow:visible"
         sodipodi:type="arc" />
      <path
         transform="matrix(1.375,0,0,1.375,-5.68893,8.8125)"
         d="M 17,16.5 C 17,16.776142 16.776142,17 16.5,17 16.223858,17 16,16.776142 16,16.5 16,16.223858 16.223858,16 16.5,16 c 0.276142,0 0.5,0.223858 0.5,0.5 z"
         sodipodi:ry="0.5"
         sodipodi:rx="0.5"
         sodipodi:cy="16.5"
         sodipodi:cx="16.5"
         id="path3724"
         style="color:#000000;fill:#2e3436;fill-opacity:1;fill-rule:evenodd;stroke:none;stroke-width:1.10000002;marker:none;visibility:visible;display:inline;overflow:visible"
         sodipodi:type="arc" />
    </g>
    <path
       id="path9855"
       d="m 78.202291,962.49047 2.400675,2.40067 6.798938,-6.79894 6.733731,6.73373 2.418456,-2.41844 -9.134406,-9.13441 -9.217394,9.21739 z"
       style="color:#000000;fill:url(#linearGradient3460);fill-opacity:1;fill-rule:nonzero;stroke:#116b1c;stroke-width:1.01690412;stroke-linecap:round;stroke-linejoin:round;stroke-miterlimit:4;stroke-opacity:1;stroke-dashoffset:0;marker:none;visibility:visible;display:inline;overflow:visible" />
    <path
       id="path9857"
       d="m 78.202291,952.8082 2.400675,2.40066 6.798938,-6.79894 6.733731,6.73375 2.418456,-2.41846 -9.134406,-9.13441 -9.217394,9.2174 z"
       style="color:#000000;fill:url(#linearGradient3457);fill-opacity:1;fill-rule:nonzero;stroke:#116b1c;stroke-width:1.01690412;stroke-linecap:round;stroke-linejoin:round;stroke-miterlimit:4;stroke-opacity:1;stroke-dashoffset:0;marker:none;visibility:visible;display:inline;overflow:visible" />
    <rect
       style="color:#000000;fill:#cc0000;fill-opacity:1;fill-rule:evenodd;stroke:#a40000;stroke-width:1;stroke-linecap:square;stroke-linejoin:round;stroke-miterlimit:4;stroke-opacity:1;stroke-dasharray:none;stroke-dashoffset:0;marker:none;visibility:visible;display:inline;overflow:visible"
       id="rect1686"
       width="20"
       height="19"
       x="77.435898"
       y="969.01984"
       inkscape:r_cx="true"
       inkscape:r_cy="true"
       rx="2.2097087"
       ry="2.2097087" />
    <g
       id="g2254"
       transform="matrix(0.779029,0,0,0.779029,77.63177,949.69573)"
       inkscape:r_cx="true"
       inkscape:r_cy="true">
      <path
         inkscape:r_cy="true"
         inkscape:r_cx="true"
         id="path1377"
         d="M 8,32 18,42"
         style="color:#000000;fill:none;stroke:#ffffff;stroke-width:2.56730008;stroke-linecap:round;stroke-linejoin:round;stroke-miterlimit:4;stroke-opacity:1;stroke-dasharray:none;stroke-dashoffset:0;marker:none;visibility:visible;display:inline;overflow:visible" />
      <path
         style="color:#000000;fill:none;stroke:#ffffff;stroke-width:2.56730008;stroke-linecap:round;stroke-linejoin:round;stroke-miterlimit:4;stroke-opacity:1;stroke-dasharray:none;stroke-dashoffset:0;marker:none;visibility:visible;display:inline;overflow:visible"
         d="M 18,32 8,42"
         id="path2252"
         inkscape:r_cx="true"
         inkscape:r_cy="true" />
    </g>
    <rect
       ry="1.5847089"
       rx="1.5847089"
       inkscape:r_cy="true"
       inkscape:r_cx="true"
       y="969.92456"
       x="78.388283"
       height="17.190477"
       width="18.09524"
       id="rect2258"
       style="opacity:0.4;color:#000000;fill:none;stroke:#ffffff;stroke-width:1;stroke-linecap:square;stroke-linejoin:round;stroke-miterlimit:4;stroke-opacity:1;stroke-dasharray:none;stroke-dashoffset:0;marker:none;visibility:visible;display:inline;overflow:visible" />
  </g>
</svg>
